<mxfile host="app.diagrams.net" modified="2023-01-13T11:23:04.725Z" agent="5.0 (Windows NT 10.0; Win64; x64) AppleWebKit/537.36 (KHTML, like Gecko) Chrome/108.0.0.0 Safari/537.36 Edg/108.0.1462.76" version="20.8.5" etag="C0gnOyiSsnbMXRzm0dno" type="github">
  <diagram id="_JYBsZAU3Q1JZhLhmNkJ" name="Page-1">
    <mxGraphModel dx="942" dy="1013" grid="0" gridSize="10" guides="1" tooltips="1" connect="1" arrows="1" fold="1" page="0" pageScale="1" pageWidth="850" pageHeight="1100" math="0" shadow="0">
      <root>
        <mxCell id="0" />
        <mxCell id="1" parent="0" />
        <mxCell id="PkaTTpddUOjeLPEOhuLK-1" value="" style="rounded=1;whiteSpace=wrap;html=1;fontSize=16;" vertex="1" parent="1">
          <mxGeometry x="100" y="-112" width="200" height="60" as="geometry" />
        </mxCell>
        <mxCell id="PkaTTpddUOjeLPEOhuLK-2" value="Material App" style="text;strokeColor=none;fillColor=none;html=1;align=center;verticalAlign=middle;whiteSpace=wrap;rounded=0;fontSize=16;" vertex="1" parent="1">
          <mxGeometry x="144.5" y="-97" width="111" height="30" as="geometry" />
        </mxCell>
        <mxCell id="PkaTTpddUOjeLPEOhuLK-3" value="" style="rounded=1;whiteSpace=wrap;html=1;fontSize=16;" vertex="1" parent="1">
          <mxGeometry x="104" y="2" width="200" height="60" as="geometry" />
        </mxCell>
        <mxCell id="PkaTTpddUOjeLPEOhuLK-18" value="" style="edgeStyle=none;curved=1;rounded=0;orthogonalLoop=1;jettySize=auto;html=1;fontSize=12;startSize=8;endSize=8;" edge="1" parent="1" source="PkaTTpddUOjeLPEOhuLK-4" target="PkaTTpddUOjeLPEOhuLK-7">
          <mxGeometry relative="1" as="geometry" />
        </mxCell>
        <mxCell id="PkaTTpddUOjeLPEOhuLK-4" value="Scaffold" style="text;strokeColor=none;fillColor=none;html=1;align=center;verticalAlign=middle;whiteSpace=wrap;rounded=0;fontSize=16;" vertex="1" parent="1">
          <mxGeometry x="148.5" y="17" width="111" height="30" as="geometry" />
        </mxCell>
        <mxCell id="PkaTTpddUOjeLPEOhuLK-5" value="" style="rounded=1;whiteSpace=wrap;html=1;fontSize=16;" vertex="1" parent="1">
          <mxGeometry x="-43" y="136" width="200" height="60" as="geometry" />
        </mxCell>
        <mxCell id="PkaTTpddUOjeLPEOhuLK-6" value="AppBar" style="text;strokeColor=none;fillColor=none;html=1;align=center;verticalAlign=middle;whiteSpace=wrap;rounded=0;fontSize=16;" vertex="1" parent="1">
          <mxGeometry x="1.5" y="153" width="111" height="30" as="geometry" />
        </mxCell>
        <mxCell id="PkaTTpddUOjeLPEOhuLK-7" value="" style="rounded=1;whiteSpace=wrap;html=1;fontSize=16;" vertex="1" parent="1">
          <mxGeometry x="209" y="136" width="200" height="60" as="geometry" />
        </mxCell>
        <mxCell id="PkaTTpddUOjeLPEOhuLK-8" value="FloatingActionButton" style="text;strokeColor=none;fillColor=none;html=1;align=center;verticalAlign=middle;whiteSpace=wrap;rounded=0;fontSize=16;" vertex="1" parent="1">
          <mxGeometry x="253.5" y="153" width="111" height="30" as="geometry" />
        </mxCell>
        <mxCell id="PkaTTpddUOjeLPEOhuLK-9" value="" style="rounded=1;whiteSpace=wrap;html=1;fontSize=16;" vertex="1" parent="1">
          <mxGeometry x="468" y="138" width="200" height="60" as="geometry" />
        </mxCell>
        <mxCell id="PkaTTpddUOjeLPEOhuLK-26" style="edgeStyle=none;curved=1;rounded=0;orthogonalLoop=1;jettySize=auto;html=1;fontSize=12;startSize=8;endSize=8;" edge="1" parent="1" source="PkaTTpddUOjeLPEOhuLK-10" target="PkaTTpddUOjeLPEOhuLK-14">
          <mxGeometry relative="1" as="geometry" />
        </mxCell>
        <mxCell id="PkaTTpddUOjeLPEOhuLK-10" value="Center" style="text;strokeColor=none;fillColor=none;html=1;align=center;verticalAlign=middle;whiteSpace=wrap;rounded=0;fontSize=16;" vertex="1" parent="1">
          <mxGeometry x="512.5" y="155" width="111" height="30" as="geometry" />
        </mxCell>
        <mxCell id="PkaTTpddUOjeLPEOhuLK-11" value="" style="rounded=1;whiteSpace=wrap;html=1;fontSize=16;" vertex="1" parent="1">
          <mxGeometry x="-43" y="232" width="200" height="60" as="geometry" />
        </mxCell>
        <mxCell id="PkaTTpddUOjeLPEOhuLK-12" value="Text" style="text;strokeColor=none;fillColor=none;html=1;align=center;verticalAlign=middle;whiteSpace=wrap;rounded=0;fontSize=16;" vertex="1" parent="1">
          <mxGeometry x="1.5" y="249" width="111" height="30" as="geometry" />
        </mxCell>
        <mxCell id="PkaTTpddUOjeLPEOhuLK-13" value="" style="rounded=1;whiteSpace=wrap;html=1;fontSize=16;" vertex="1" parent="1">
          <mxGeometry x="474" y="234" width="200" height="60" as="geometry" />
        </mxCell>
        <mxCell id="PkaTTpddUOjeLPEOhuLK-14" value="Text" style="text;strokeColor=none;fillColor=none;html=1;align=center;verticalAlign=middle;whiteSpace=wrap;rounded=0;fontSize=16;" vertex="1" parent="1">
          <mxGeometry x="518.5" y="251" width="111" height="30" as="geometry" />
        </mxCell>
        <mxCell id="PkaTTpddUOjeLPEOhuLK-16" value="" style="endArrow=classic;html=1;rounded=0;fontSize=12;startSize=8;endSize=8;curved=1;" edge="1" parent="1" source="PkaTTpddUOjeLPEOhuLK-1" target="PkaTTpddUOjeLPEOhuLK-3">
          <mxGeometry width="50" height="50" relative="1" as="geometry">
            <mxPoint x="220" y="166" as="sourcePoint" />
            <mxPoint x="270" y="116" as="targetPoint" />
            <Array as="points">
              <mxPoint x="192" y="-29" />
            </Array>
          </mxGeometry>
        </mxCell>
        <mxCell id="PkaTTpddUOjeLPEOhuLK-17" value="" style="endArrow=classic;html=1;rounded=0;fontSize=12;startSize=8;endSize=8;curved=1;exitX=0.374;exitY=1.16;exitDx=0;exitDy=0;exitPerimeter=0;" edge="1" parent="1" source="PkaTTpddUOjeLPEOhuLK-4" target="PkaTTpddUOjeLPEOhuLK-5">
          <mxGeometry width="50" height="50" relative="1" as="geometry">
            <mxPoint x="220" y="166" as="sourcePoint" />
            <mxPoint x="270" y="116" as="targetPoint" />
          </mxGeometry>
        </mxCell>
        <mxCell id="PkaTTpddUOjeLPEOhuLK-19" value="" style="endArrow=classic;html=1;rounded=0;fontSize=12;startSize=8;endSize=8;curved=1;entryX=0.5;entryY=0;entryDx=0;entryDy=0;" edge="1" parent="1" source="PkaTTpddUOjeLPEOhuLK-4" target="PkaTTpddUOjeLPEOhuLK-9">
          <mxGeometry width="50" height="50" relative="1" as="geometry">
            <mxPoint x="461" y="166" as="sourcePoint" />
            <mxPoint x="511" y="116" as="targetPoint" />
          </mxGeometry>
        </mxCell>
        <mxCell id="PkaTTpddUOjeLPEOhuLK-21" value="" style="rounded=1;whiteSpace=wrap;html=1;fontSize=16;" vertex="1" parent="1">
          <mxGeometry x="216" y="234" width="200" height="60" as="geometry" />
        </mxCell>
        <mxCell id="PkaTTpddUOjeLPEOhuLK-22" value="Icon" style="text;strokeColor=none;fillColor=none;html=1;align=center;verticalAlign=middle;whiteSpace=wrap;rounded=0;fontSize=16;" vertex="1" parent="1">
          <mxGeometry x="260.5" y="251" width="111" height="30" as="geometry" />
        </mxCell>
        <mxCell id="PkaTTpddUOjeLPEOhuLK-23" value="" style="endArrow=classic;html=1;rounded=0;fontSize=12;startSize=8;endSize=8;curved=1;exitX=0.5;exitY=1;exitDx=0;exitDy=0;" edge="1" parent="1" source="PkaTTpddUOjeLPEOhuLK-8" target="PkaTTpddUOjeLPEOhuLK-21">
          <mxGeometry width="50" height="50" relative="1" as="geometry">
            <mxPoint x="392" y="175" as="sourcePoint" />
            <mxPoint x="442" y="125" as="targetPoint" />
          </mxGeometry>
        </mxCell>
        <mxCell id="PkaTTpddUOjeLPEOhuLK-24" value="" style="endArrow=classic;html=1;rounded=0;fontSize=12;startSize=8;endSize=8;curved=1;exitX=0.5;exitY=1;exitDx=0;exitDy=0;" edge="1" parent="1" source="PkaTTpddUOjeLPEOhuLK-6" target="PkaTTpddUOjeLPEOhuLK-12">
          <mxGeometry width="50" height="50" relative="1" as="geometry">
            <mxPoint x="254" y="175" as="sourcePoint" />
            <mxPoint x="304" y="125" as="targetPoint" />
          </mxGeometry>
        </mxCell>
      </root>
    </mxGraphModel>
  </diagram>
</mxfile>
